<?xml version="1.0" encoding="UTF-8" standalone="no"?>
<!DOCTYPE svg PUBLIC "-//W3C//DTD SVG 1.1//EN"
 "http://www.w3.org/Graphics/SVG/1.1/DTD/svg11.dtd">
<!-- Generated by graphviz version 2.40.1 (20161225.0304)
 -->
<!-- Title: G Pages: 1 -->
<svg width="842pt" height="896pt"
 viewBox="0.00 0.00 841.51 896.00" xmlns="http://www.w3.org/2000/svg" xmlns:xlink="http://www.w3.org/1999/xlink">
<g id="graph0" class="graph" transform="scale(1 1) rotate(0) translate(4 892)">
<title>G</title>
<polygon fill="#ffffff" stroke="transparent" points="-4,4 -4,-892 837.514,-892 837.514,4 -4,4"/>
<!-- A0 -->
<g id="node1" class="node">
<title>A0</title>
<polygon fill="none" stroke="#000000" points="370.5759,-888 258.6701,-888 258.6701,-852 376.5759,-852 376.5759,-882 370.5759,-888"/>
<polyline fill="none" stroke="#000000" points="370.5759,-888 370.5759,-882 "/>
<polyline fill="none" stroke="#000000" points="376.5759,-882 370.5759,-882 "/>
<text text-anchor="middle" x="317.623" y="-873" font-family="Helvetica,sans-Serif" font-size="10.00" fill="#000000">FT_PRINTF funtion </text>
<text text-anchor="middle" x="317.623" y="-861" font-family="Helvetica,sans-Serif" font-size="10.00" fill="#000000">FILE: ft_printf.c</text>
</g>
<!-- A1 -->
<g id="node2" class="node">
<title>A1</title>
<path fill="none" stroke="#000000" d="M334.618,-815C334.618,-815 300.628,-815 300.628,-815 294.628,-815 288.628,-809 288.628,-803 288.628,-803 288.628,-791 288.628,-791 288.628,-785 294.628,-779 300.628,-779 300.628,-779 334.618,-779 334.618,-779 340.618,-779 346.618,-785 346.618,-791 346.618,-791 346.618,-803 346.618,-803 346.618,-809 340.618,-815 334.618,-815"/>
<text text-anchor="middle" x="317.623" y="-794" font-family="Helvetica,sans-Serif" font-size="10.00" fill="#000000">INPUT</text>
</g>
<!-- A0&#45;&gt;A1 -->
<g id="edge1" class="edge">
<title>A0&#45;&gt;A1</title>
<path fill="none" stroke="#000000" stroke-dasharray="5,2" d="M317.623,-851.9551C317.623,-840.7241 317.623,-826.3298 317.623,-815.0904"/>
</g>
<!-- A2 -->
<g id="node3" class="node">
<title>A2</title>
<path fill="none" stroke="#000000" d="M288.6831,-742C288.6831,-742 224.5629,-742 224.5629,-742 218.5629,-742 212.5629,-736 212.5629,-730 212.5629,-730 212.5629,-718 212.5629,-718 212.5629,-712 218.5629,-706 224.5629,-706 224.5629,-706 288.6831,-706 288.6831,-706 294.6831,-706 300.6831,-712 300.6831,-718 300.6831,-718 300.6831,-730 300.6831,-730 300.6831,-736 294.6831,-742 288.6831,-742"/>
<text text-anchor="middle" x="256.623" y="-721" font-family="Helvetica,sans-Serif" font-size="10.00" fill="#000000">read STRING</text>
</g>
<!-- A1&#45;&gt;A2 -->
<g id="edge2" class="edge">
<title>A1&#45;&gt;A2</title>
<path fill="none" stroke="#000000" d="M302.5443,-778.9551C293.1596,-767.7241 281.1314,-753.3298 271.7396,-742.0904"/>
</g>
<!-- A4 -->
<g id="node5" class="node">
<title>A4</title>
<path fill="none" stroke="#000000" d="M427.633,-742C427.633,-742 331.613,-742 331.613,-742 325.613,-742 319.613,-736 319.613,-730 319.613,-730 319.613,-718 319.613,-718 319.613,-712 325.613,-706 331.613,-706 331.613,-706 427.633,-706 427.633,-706 433.633,-706 439.633,-712 439.633,-718 439.633,-718 439.633,-730 439.633,-730 439.633,-736 433.633,-742 427.633,-742"/>
<text text-anchor="middle" x="379.623" y="-727" font-family="Helvetica,sans-Serif" font-size="10.00" fill="#000000">1ยบ string with flags +</text>
<text text-anchor="middle" x="379.623" y="-715" font-family="Helvetica,sans-Serif" font-size="10.00" fill="#000000"> 2ยบ variables</text>
</g>
<!-- A1&#45;&gt;A4 -->
<g id="edge4" class="edge">
<title>A1&#45;&gt;A4</title>
<path fill="none" stroke="#000000" d="M332.9488,-778.9551C342.4874,-767.7241 354.7128,-753.3298 364.2586,-742.0904"/>
</g>
<!-- A3 -->
<g id="node4" class="node">
<title>A3</title>
<polygon fill="none" stroke="#000000" points="276.623,-658 258.623,-640 276.623,-622 294.623,-640 276.623,-658"/>
</g>
<!-- A2&#45;&gt;A3 -->
<g id="edge3" class="edge">
<title>A2&#45;&gt;A3</title>
<path fill="none" stroke="#000000" d="M260.9627,-705.7733C263.8454,-693.6657 267.6639,-677.6281 270.8086,-664.4206"/>
<polygon fill="#000000" stroke="#000000" points="273.1553,-654.5642 275.2167,-665.3346 271.9972,-659.4283 270.839,-664.2923 270.839,-664.2923 270.839,-664.2923 271.9972,-659.4283 266.4614,-663.25 273.1553,-654.5642 273.1553,-654.5642"/>
<text text-anchor="middle" x="317.244" y="-679" font-family="Helvetica,sans-Serif" font-size="10.00" fill="#000000">character to character</text>
</g>
<!-- A6 -->
<g id="node7" class="node">
<title>A6</title>
<path fill="none" stroke="#000000" d="M277.61,-204C277.61,-204 193.636,-204 193.636,-204 187.636,-204 181.636,-198 181.636,-192 181.636,-192 181.636,-180 181.636,-180 181.636,-174 187.636,-168 193.636,-168 193.636,-168 277.61,-168 277.61,-168 283.61,-168 289.61,-174 289.61,-180 289.61,-180 289.61,-192 289.61,-192 289.61,-198 283.61,-204 277.61,-204"/>
<text text-anchor="middle" x="235.623" y="-189" font-family="Helvetica,sans-Serif" font-size="10.00" fill="#000000">WRITE &amp; COUNT</text>
<text text-anchor="middle" x="235.623" y="-177" font-family="Helvetica,sans-Serif" font-size="10.00" fill="#000000"> caracter</text>
</g>
<!-- A3&#45;&gt;A6 -->
<g id="edge6" class="edge">
<title>A3&#45;&gt;A6</title>
<path fill="none" stroke="#000000" d="M288.5213,-633.8214C296.548,-629.8943 307.4857,-625.0018 317.623,-622 420.6105,-591.5039 794.623,-651.4078 794.623,-544 794.623,-544 794.623,-544 794.623,-263 794.623,-213.5511 446.9083,-194.2055 299.9562,-188.2376"/>
<polygon fill="#000000" stroke="#000000" points="289.7302,-187.8308 299.9012,-183.7319 294.7262,-188.0296 299.7223,-188.2284 299.7223,-188.2284 299.7223,-188.2284 294.7262,-188.0296 299.5434,-192.7248 289.7302,-187.8308 289.7302,-187.8308"/>
<text text-anchor="middle" x="814.0685" y="-397" font-family="Helvetica,sans-Serif" font-size="10.00" fill="#000000">[ normal </text>
<text text-anchor="middle" x="814.0685" y="-385" font-family="Helvetica,sans-Serif" font-size="10.00" fill="#000000">char. ]</text>
</g>
<!-- A7 -->
<g id="node8" class="node">
<title>A7</title>
<path fill="none" stroke="#000000" d="M318.03,-562C318.03,-562 235.216,-562 235.216,-562 229.216,-562 223.216,-556 223.216,-550 223.216,-550 223.216,-538 223.216,-538 223.216,-532 229.216,-526 235.216,-526 235.216,-526 318.03,-526 318.03,-526 324.03,-526 330.03,-532 330.03,-538 330.03,-538 330.03,-550 330.03,-550 330.03,-556 324.03,-562 318.03,-562"/>
<text text-anchor="middle" x="276.623" y="-547" font-family="Helvetica,sans-Serif" font-size="10.00" fill="#000000">ANALYSIS_ONE </text>
<text text-anchor="middle" x="276.623" y="-535" font-family="Helvetica,sans-Serif" font-size="10.00" fill="#000000">function</text>
</g>
<!-- A3&#45;&gt;A7 -->
<g id="edge7" class="edge">
<title>A3&#45;&gt;A7</title>
<path fill="none" stroke="#000000" d="M276.623,-621.9431C276.623,-608.0862 276.623,-588.6861 276.623,-572.7075"/>
<polygon fill="#000000" stroke="#000000" points="276.623,-562.3023 281.1231,-572.3023 276.623,-567.3023 276.6231,-572.3023 276.6231,-572.3023 276.6231,-572.3023 276.623,-567.3023 272.1231,-572.3023 276.623,-562.3023 276.623,-562.3023"/>
<text text-anchor="middle" x="296.8925" y="-595" font-family="Helvetica,sans-Serif" font-size="10.00" fill="#000000">[ flag &#39;%&#39; </text>
<text text-anchor="middle" x="296.8925" y="-583" font-family="Helvetica,sans-Serif" font-size="10.00" fill="#000000">char. ]</text>
</g>
<!-- A5 -->
<g id="node6" class="node">
<title>A5</title>
<path fill="none" stroke="#000000" d="M420.3573,-658C420.3573,-658 338.8887,-658 338.8887,-658 332.8887,-658 326.8887,-652 326.8887,-646 326.8887,-646 326.8887,-634 326.8887,-634 326.8887,-628 332.8887,-622 338.8887,-622 338.8887,-622 420.3573,-622 420.3573,-622 426.3573,-622 432.3573,-628 432.3573,-634 432.3573,-634 432.3573,-646 432.3573,-646 432.3573,-652 426.3573,-658 420.3573,-658"/>
<text text-anchor="middle" x="379.623" y="-643" font-family="Helvetica,sans-Serif" font-size="10.00" fill="#000000">variadic funcition </text>
<text text-anchor="middle" x="379.623" y="-631" font-family="Helvetica,sans-Serif" font-size="10.00" fill="#000000">use</text>
</g>
<!-- A4&#45;&gt;A5 -->
<g id="edge5" class="edge">
<title>A4&#45;&gt;A5</title>
<path fill="none" stroke="#000000" d="M379.623,-705.7733C379.623,-691.6836 379.623,-672.2718 379.623,-658.1912"/>
</g>
<!-- A19 -->
<g id="node20" class="node">
<title>A19</title>
<polygon fill="none" stroke="#000000" points="67.623,-120 49.623,-102 67.623,-84 85.623,-102 67.623,-120"/>
</g>
<!-- A6&#45;&gt;A19 -->
<g id="edge28" class="edge">
<title>A6&#45;&gt;A19</title>
<path fill="none" stroke="#000000" d="M199.5828,-167.9799C165.9223,-151.1496 116.81,-126.5935 88.9697,-112.6733"/>
<polygon fill="#000000" stroke="#000000" points="79.7431,-108.0601 90.6999,-108.5073 84.2153,-110.2962 88.6874,-112.5323 88.6874,-112.5323 88.6874,-112.5323 84.2153,-110.2962 86.6749,-116.5572 79.7431,-108.0601 79.7431,-108.0601"/>
<text text-anchor="middle" x="221.2445" y="-141" font-family="Helvetica,sans-Serif" font-size="10.00" fill="#000000">Is the string at the end &#39;0&#39;?</text>
</g>
<!-- A8 -->
<g id="node9" class="node">
<title>A8</title>
<path fill="none" stroke="#000000" d="M483.6909,-466C483.6909,-466 399.5551,-466 399.5551,-466 393.5551,-466 387.5551,-460 387.5551,-454 387.5551,-454 387.5551,-442 387.5551,-442 387.5551,-436 393.5551,-430 399.5551,-430 399.5551,-430 483.6909,-430 483.6909,-430 489.6909,-430 495.6909,-436 495.6909,-442 495.6909,-442 495.6909,-454 495.6909,-454 495.6909,-460 489.6909,-466 483.6909,-466"/>
<text text-anchor="middle" x="441.623" y="-451" font-family="Helvetica,sans-Serif" font-size="10.00" fill="#000000">ANALYSIS_TWO </text>
<text text-anchor="middle" x="441.623" y="-439" font-family="Helvetica,sans-Serif" font-size="10.00" fill="#000000">function</text>
</g>
<!-- A7&#45;&gt;A8 -->
<g id="edge8" class="edge">
<title>A7&#45;&gt;A8</title>
<path fill="none" stroke="#000000" d="M330.3559,-525.8834C342.9339,-520.7951 356.0356,-514.7738 367.623,-508 384.5724,-498.0917 401.7137,-484.4719 415.2247,-472.7128"/>
<polygon fill="#000000" stroke="#000000" points="422.7314,-466.0464 418.2423,-476.0513 418.9928,-469.3665 415.2542,-472.6866 415.2542,-472.6866 415.2542,-472.6866 418.9928,-469.3665 412.2661,-469.3218 422.7314,-466.0464 422.7314,-466.0464"/>
</g>
<!-- A9 -->
<g id="node10" class="node">
<title>A9</title>
<polygon fill="none" stroke="#000000" points="187.8184,-466 79.4276,-466 79.4276,-430 193.8184,-430 193.8184,-460 187.8184,-466"/>
<polyline fill="none" stroke="#000000" points="187.8184,-466 187.8184,-460 "/>
<polyline fill="none" stroke="#000000" points="193.8184,-460 187.8184,-460 "/>
<text text-anchor="middle" x="136.623" y="-451" font-family="Helvetica,sans-Serif" font-size="10.00" fill="#000000">c,s and % subflags </text>
<text text-anchor="middle" x="136.623" y="-439" font-family="Helvetica,sans-Serif" font-size="10.00" fill="#000000">FILE: ft_util_char.c</text>
</g>
<!-- A7&#45;&gt;A9 -->
<g id="edge9" class="edge">
<title>A7&#45;&gt;A9</title>
<path fill="none" stroke="#000000" stroke-dasharray="5,2" d="M231.709,-525.9819C220.8271,-520.8204 209.4939,-514.7411 199.623,-508 182.036,-495.9894 164.7105,-479.0076 152.6936,-466.1743"/>
</g>
<!-- A11 -->
<g id="node12" class="node">
<title>A11</title>
<path fill="none" stroke="#000000" d="M178.1752,-412C178.1752,-412 119.0708,-412 119.0708,-412 113.0708,-412 107.0708,-406 107.0708,-400 107.0708,-400 107.0708,-388 107.0708,-388 107.0708,-382 113.0708,-376 119.0708,-376 119.0708,-376 178.1752,-376 178.1752,-376 184.1752,-376 190.1752,-382 190.1752,-388 190.1752,-388 190.1752,-400 190.1752,-400 190.1752,-406 184.1752,-412 178.1752,-412"/>
<text text-anchor="middle" x="148.623" y="-397" font-family="Helvetica,sans-Serif" font-size="10.00" fill="#000000">FT_PCHAR </text>
<text text-anchor="middle" x="148.623" y="-385" font-family="Helvetica,sans-Serif" font-size="10.00" fill="#000000">function</text>
</g>
<!-- A7&#45;&gt;A11 -->
<g id="edge11" class="edge">
<title>A7&#45;&gt;A11</title>
<path fill="none" stroke="#000000" d="M241.6543,-525.9468C234.6223,-520.9503 227.8861,-514.9529 222.949,-508 202.208,-478.7905 223.4049,-459.1805 202.623,-430 199.5959,-425.7496 195.8968,-421.8588 191.8678,-418.3367"/>
<polygon fill="#000000" stroke="#000000" points="183.8034,-412.0202 194.4508,-414.6438 187.7397,-415.1033 191.676,-418.1865 191.676,-418.1865 191.676,-418.1865 187.7397,-415.1033 188.9012,-421.7291 183.8034,-412.0202 183.8034,-412.0202"/>
<text text-anchor="middle" x="239.46" y="-499" font-family="Helvetica,sans-Serif" font-size="10.00" fill="#000000">next is </text>
<text text-anchor="middle" x="239.46" y="-487" font-family="Helvetica,sans-Serif" font-size="10.00" fill="#000000">&#39;c&#39;</text>
</g>
<!-- A7&#45;&gt;A11 -->
<g id="edge13" class="edge">
<title>A7&#45;&gt;A11</title>
<path fill="none" stroke="#000000" d="M272.5152,-525.6339C266.0346,-500.7044 251.1351,-456.2603 222.623,-430 215.8317,-423.7451 207.7535,-418.354 199.4708,-413.7892"/>
<polygon fill="#000000" stroke="#000000" points="190.4542,-409.1585 201.4055,-409.7241 194.9019,-411.4428 199.3497,-413.727 199.3497,-413.727 199.3497,-413.727 194.9019,-411.4428 197.2938,-417.73 190.4542,-409.1585 190.4542,-409.1585"/>
<text text-anchor="middle" x="283.46" y="-499" font-family="Helvetica,sans-Serif" font-size="10.00" fill="#000000">next is </text>
<text text-anchor="middle" x="283.46" y="-487" font-family="Helvetica,sans-Serif" font-size="10.00" fill="#000000">&#39;%&#39;</text>
</g>
<!-- A13 -->
<g id="node14" class="node">
<title>A13</title>
<path fill="none" stroke="#000000" d="M299.9536,-412C299.9536,-412 237.2924,-412 237.2924,-412 231.2924,-412 225.2924,-406 225.2924,-400 225.2924,-400 225.2924,-388 225.2924,-388 225.2924,-382 231.2924,-376 237.2924,-376 237.2924,-376 299.9536,-376 299.9536,-376 305.9536,-376 311.9536,-382 311.9536,-388 311.9536,-388 311.9536,-400 311.9536,-400 311.9536,-406 305.9536,-412 299.9536,-412"/>
<text text-anchor="middle" x="268.623" y="-397" font-family="Helvetica,sans-Serif" font-size="10.00" fill="#000000">FT_PCHAIN </text>
<text text-anchor="middle" x="268.623" y="-385" font-family="Helvetica,sans-Serif" font-size="10.00" fill="#000000">function</text>
</g>
<!-- A7&#45;&gt;A13 -->
<g id="edge15" class="edge">
<title>A7&#45;&gt;A13</title>
<path fill="none" stroke="#000000" d="M298.1415,-525.6947C302.811,-520.5016 307.1026,-514.4795 309.623,-508 313.4899,-498.0589 311.4188,-494.5144 309.623,-484 305.3396,-458.9209 301.5389,-452.9816 290.623,-430 289.2088,-427.0227 287.612,-423.9797 285.9405,-420.9862"/>
<polygon fill="#000000" stroke="#000000" points="280.8098,-412.2689 289.7603,-418.6044 283.346,-416.578 285.8822,-420.887 285.8822,-420.887 285.8822,-420.887 283.346,-416.578 282.0041,-423.1696 280.8098,-412.2689 280.8098,-412.2689"/>
<text text-anchor="middle" x="328.46" y="-499" font-family="Helvetica,sans-Serif" font-size="10.00" fill="#000000">next is </text>
<text text-anchor="middle" x="328.46" y="-487" font-family="Helvetica,sans-Serif" font-size="10.00" fill="#000000">&#39;s&#39;</text>
</g>
<!-- A10 -->
<g id="node11" class="node">
<title>A10</title>
<polygon fill="none" stroke="#000000" points="523.8313,-358 395.4147,-358 395.4147,-322 529.8313,-322 529.8313,-352 523.8313,-358"/>
<polyline fill="none" stroke="#000000" points="523.8313,-358 523.8313,-352 "/>
<polyline fill="none" stroke="#000000" points="529.8313,-352 523.8313,-352 "/>
<text text-anchor="middle" x="462.623" y="-343" font-family="Helvetica,sans-Serif" font-size="10.00" fill="#000000">d,i,u,x,X and p subflags </text>
<text text-anchor="middle" x="462.623" y="-331" font-family="Helvetica,sans-Serif" font-size="10.00" fill="#000000">FILE: ft_util_number.c</text>
</g>
<!-- A8&#45;&gt;A10 -->
<g id="edge10" class="edge">
<title>A8&#45;&gt;A10</title>
<path fill="none" stroke="#000000" stroke-dasharray="5,2" d="M445.1854,-429.6793C449.0704,-409.699 455.2491,-377.9231 459.1132,-358.0502"/>
</g>
<!-- A14 -->
<g id="node15" class="node">
<title>A14</title>
<path fill="none" stroke="#000000" d="M634.673,-358C634.673,-358 560.573,-358 560.573,-358 554.573,-358 548.573,-352 548.573,-346 548.573,-346 548.573,-334 548.573,-334 548.573,-328 554.573,-322 560.573,-322 560.573,-322 634.673,-322 634.673,-322 640.673,-322 646.673,-328 646.673,-334 646.673,-334 646.673,-346 646.673,-346 646.673,-352 640.673,-358 634.673,-358"/>
<text text-anchor="middle" x="597.623" y="-343" font-family="Helvetica,sans-Serif" font-size="10.00" fill="#000000">FT_PNUMBER </text>
<text text-anchor="middle" x="597.623" y="-331" font-family="Helvetica,sans-Serif" font-size="10.00" fill="#000000">function</text>
</g>
<!-- A8&#45;&gt;A14 -->
<g id="edge17" class="edge">
<title>A8&#45;&gt;A14</title>
<path fill="none" stroke="#000000" d="M467.7339,-429.9232C493.8309,-411.8561 534.1107,-383.9701 562.8923,-364.0443"/>
<polygon fill="#000000" stroke="#000000" points="571.4269,-358.1357 565.7664,-367.5278 567.316,-360.9818 563.205,-363.8279 563.205,-363.8279 563.205,-363.8279 567.316,-360.9818 560.6435,-360.128 571.4269,-358.1357 571.4269,-358.1357"/>
<text text-anchor="middle" x="558.46" y="-397" font-family="Helvetica,sans-Serif" font-size="10.00" fill="#000000">next is </text>
<text text-anchor="middle" x="558.46" y="-385" font-family="Helvetica,sans-Serif" font-size="10.00" fill="#000000">&#39;d&#39; or &#39;i&#39;</text>
</g>
<!-- A15 -->
<g id="node16" class="node">
<title>A15</title>
<path fill="none" stroke="#000000" d="M754.4515,-358C754.4515,-358 676.7945,-358 676.7945,-358 670.7945,-358 664.7945,-352 664.7945,-346 664.7945,-346 664.7945,-334 664.7945,-334 664.7945,-328 670.7945,-322 676.7945,-322 676.7945,-322 754.4515,-322 754.4515,-322 760.4515,-322 766.4515,-328 766.4515,-334 766.4515,-334 766.4515,-346 766.4515,-346 766.4515,-352 760.4515,-358 754.4515,-358"/>
<text text-anchor="middle" x="715.623" y="-343" font-family="Helvetica,sans-Serif" font-size="10.00" fill="#000000">FT_UNSIGNED </text>
<text text-anchor="middle" x="715.623" y="-331" font-family="Helvetica,sans-Serif" font-size="10.00" fill="#000000">function</text>
</g>
<!-- A8&#45;&gt;A15 -->
<g id="edge19" class="edge">
<title>A8&#45;&gt;A15</title>
<path fill="none" stroke="#000000" d="M495.8687,-436.7417C521.4087,-430.6867 552.0309,-422.327 578.623,-412 613.2778,-398.5419 650.4913,-378.5996 677.375,-363.1133"/>
<polygon fill="#000000" stroke="#000000" points="686.0774,-358.048 679.6985,-366.9677 681.7561,-360.5633 677.4348,-363.0785 677.4348,-363.0785 677.4348,-363.0785 681.7561,-360.5633 675.1711,-359.1894 686.0774,-358.048 686.0774,-358.048"/>
<text text-anchor="middle" x="666.46" y="-397" font-family="Helvetica,sans-Serif" font-size="10.00" fill="#000000">next is </text>
<text text-anchor="middle" x="666.46" y="-385" font-family="Helvetica,sans-Serif" font-size="10.00" fill="#000000">&#39;u&#39;</text>
</g>
<!-- A16 -->
<g id="node17" class="node">
<title>A16</title>
<path fill="none" stroke="#000000" d="M268.2361,-358C268.2361,-358 223.0099,-358 223.0099,-358 217.0099,-358 211.0099,-352 211.0099,-346 211.0099,-346 211.0099,-334 211.0099,-334 211.0099,-328 217.0099,-322 223.0099,-322 223.0099,-322 268.2361,-322 268.2361,-322 274.2361,-322 280.2361,-328 280.2361,-334 280.2361,-334 280.2361,-346 280.2361,-346 280.2361,-352 274.2361,-358 268.2361,-358"/>
<text text-anchor="middle" x="245.623" y="-343" font-family="Helvetica,sans-Serif" font-size="10.00" fill="#000000">FT_HEX </text>
<text text-anchor="middle" x="245.623" y="-331" font-family="Helvetica,sans-Serif" font-size="10.00" fill="#000000">function</text>
</g>
<!-- A8&#45;&gt;A16 -->
<g id="edge21" class="edge">
<title>A8&#45;&gt;A16</title>
<path fill="none" stroke="#000000" d="M387.3554,-431.9816C374.4194,-426.7706 361.1345,-420.1675 349.949,-412 333.2824,-399.8302 336.8323,-388.7725 320.623,-376 315.0465,-371.6059 302.692,-365.2774 289.5879,-359.1483"/>
<polygon fill="#000000" stroke="#000000" points="280.4702,-354.9632 291.4357,-355.0451 285.0143,-357.049 289.5585,-359.1349 289.5585,-359.1349 289.5585,-359.1349 285.0143,-357.049 287.6812,-363.2246 280.4702,-354.9632 280.4702,-354.9632"/>
<text text-anchor="middle" x="366.46" y="-397" font-family="Helvetica,sans-Serif" font-size="10.00" fill="#000000">next is </text>
<text text-anchor="middle" x="366.46" y="-385" font-family="Helvetica,sans-Serif" font-size="10.00" fill="#000000">&#39;x&#39;</text>
</g>
<!-- A17 -->
<g id="node18" class="node">
<title>A17</title>
<path fill="none" stroke="#000000" d="M365.2341,-358C365.2341,-358 310.0119,-358 310.0119,-358 304.0119,-358 298.0119,-352 298.0119,-346 298.0119,-346 298.0119,-334 298.0119,-334 298.0119,-328 304.0119,-322 310.0119,-322 310.0119,-322 365.2341,-322 365.2341,-322 371.2341,-322 377.2341,-328 377.2341,-334 377.2341,-334 377.2341,-346 377.2341,-346 377.2341,-352 371.2341,-358 365.2341,-358"/>
<text text-anchor="middle" x="337.623" y="-343" font-family="Helvetica,sans-Serif" font-size="10.00" fill="#000000">FT_POINT </text>
<text text-anchor="middle" x="337.623" y="-331" font-family="Helvetica,sans-Serif" font-size="10.00" fill="#000000">function</text>
</g>
<!-- A8&#45;&gt;A17 -->
<g id="edge23" class="edge">
<title>A8&#45;&gt;A17</title>
<path fill="none" stroke="#000000" d="M426.9528,-429.7512C422.4339,-424.0846 417.4615,-417.803 412.949,-412 400.6183,-396.1428 399.8678,-390.1628 385.623,-376 381.6525,-372.0524 377.2333,-368.1754 372.7289,-364.5135"/>
<polygon fill="#000000" stroke="#000000" points="364.6073,-358.1855 375.2613,-360.782 368.5514,-361.2586 372.4955,-364.3317 372.4955,-364.3317 372.4955,-364.3317 368.5514,-361.2586 369.7297,-367.8814 364.6073,-358.1855 364.6073,-358.1855"/>
<text text-anchor="middle" x="429.46" y="-397" font-family="Helvetica,sans-Serif" font-size="10.00" fill="#000000">next is </text>
<text text-anchor="middle" x="429.46" y="-385" font-family="Helvetica,sans-Serif" font-size="10.00" fill="#000000">&#39;c&#39;</text>
</g>
<!-- A12 -->
<g id="node13" class="node">
<title>A12</title>
<polygon fill="#d3d3d3" stroke="#000000" stroke-width="4" points="217.623,-261 217.623,-265 253.623,-265 253.623,-261 217.623,-261"/>
<text text-anchor="middle" x="219.762" y="-262.7" font-family="Helvetica,sans-Serif" font-size="1.00" fill="#000000"> </text>
<polyline fill="none" stroke="#000000" stroke-width="4" points="221.9009,-261 221.9009,-265 "/>
<text text-anchor="middle" x="224.5399" y="-262.7" font-family="Helvetica,sans-Serif" font-size="1.00" fill="#000000"> </text>
<polyline fill="none" stroke="#000000" stroke-width="4" points="227.1788,-261 227.1788,-265 "/>
<text text-anchor="middle" x="229.8178" y="-262.7" font-family="Helvetica,sans-Serif" font-size="1.00" fill="#000000"> </text>
<polyline fill="none" stroke="#000000" stroke-width="4" points="232.4567,-261 232.4567,-265 "/>
<text text-anchor="middle" x="235.0957" y="-262.7" font-family="Helvetica,sans-Serif" font-size="1.00" fill="#000000"> </text>
<polyline fill="none" stroke="#000000" stroke-width="4" points="237.7346,-261 237.7346,-265 "/>
<text text-anchor="middle" x="240.3736" y="-262.7" font-family="Helvetica,sans-Serif" font-size="1.00" fill="#000000"> </text>
<polyline fill="none" stroke="#000000" stroke-width="4" points="243.0125,-261 243.0125,-265 "/>
<text text-anchor="middle" x="245.6515" y="-262.7" font-family="Helvetica,sans-Serif" font-size="1.00" fill="#000000"> </text>
<polyline fill="none" stroke="#000000" stroke-width="4" points="248.2904,-261 248.2904,-265 "/>
<text text-anchor="middle" x="250.9294" y="-262.7" font-family="Helvetica,sans-Serif" font-size="1.00" fill="#000000"> </text>
</g>
<!-- A11&#45;&gt;A12 -->
<g id="edge12" class="edge">
<title>A11&#45;&gt;A12:n</title>
<path fill="none" stroke="#000000" d="M137.6807,-375.7285C127.5493,-356.1875 116.0686,-325.0397 130.623,-303 152.1021,-270.4741 207.7451,-301.0162 217.9893,-275.0165"/>
<polygon fill="#000000" stroke="#000000" points="219.623,-265 222.4545,-275.594 218.8181,-269.9348 218.0132,-274.8696 218.0132,-274.8696 218.0132,-274.8696 218.8181,-269.9348 213.5719,-274.1452 219.623,-265 219.623,-265"/>
</g>
<!-- A11&#45;&gt;A12 -->
<g id="edge14" class="edge">
<title>A11&#45;&gt;A12:n</title>
<path fill="none" stroke="#000000" d="M160.001,-375.8116C177.31,-348.0204 209.4284,-295.9395 220.6385,-274.3316"/>
<polygon fill="#000000" stroke="#000000" points="224.623,-265 224.8346,-275.9638 222.6595,-269.5984 220.6961,-274.1967 220.6961,-274.1967 220.6961,-274.1967 222.6595,-269.5984 216.5575,-272.4296 224.623,-265 224.623,-265"/>
</g>
<!-- A12&#45;&gt;A6 -->
<g id="edge27" class="edge">
<title>A12&#45;&gt;A6</title>
<path fill="none" stroke="#000000" d="M235.623,-260.7786C235.623,-253.9352 235.623,-232.5392 235.623,-214.3779"/>
<polygon fill="#000000" stroke="#000000" points="235.623,-204.1931 240.1231,-214.193 235.623,-209.1931 235.6231,-214.1931 235.6231,-214.1931 235.6231,-214.1931 235.623,-209.1931 231.1231,-214.1931 235.623,-204.1931 235.623,-204.1931"/>
</g>
<!-- A13&#45;&gt;A12 -->
<g id="edge16" class="edge">
<title>A13&#45;&gt;A12:n</title>
<path fill="none" stroke="#000000" d="M225.1958,-379.4011C215.8347,-374.155 207.1118,-367.1801 201.623,-358 193.4123,-344.2674 198.0018,-337.5848 201.623,-322 207.1626,-298.1589 224.1508,-294.0279 228.5656,-274.9446"/>
<polygon fill="#000000" stroke="#000000" points="229.623,-265 233.0404,-275.4198 229.0943,-269.972 228.5656,-274.944 228.5656,-274.944 228.5656,-274.944 229.0943,-269.972 224.0908,-274.4681 229.623,-265 229.623,-265"/>
</g>
<!-- A14&#45;&gt;A12 -->
<g id="edge18" class="edge">
<title>A14&#45;&gt;A12:n</title>
<path fill="none" stroke="#000000" d="M548.4806,-324.5621C545.1555,-323.6552 541.8471,-322.7915 538.623,-322 508.1158,-314.5107 279.3845,-301.8022 240.2966,-273.4273"/>
<polygon fill="#000000" stroke="#000000" points="234.623,-265 243.9406,-270.7822 237.4154,-269.1476 240.2077,-273.2953 240.2077,-273.2953 240.2077,-273.2953 237.4154,-269.1476 236.4748,-275.8084 234.623,-265 234.623,-265"/>
</g>
<!-- A18 -->
<g id="node19" class="node">
<title>A18</title>
<path fill="none" stroke="#000000" d="M716.3722,-285C716.3722,-285 604.8738,-285 604.8738,-285 598.8738,-285 592.8738,-279 592.8738,-273 592.8738,-273 592.8738,-253 592.8738,-253 592.8738,-247 598.8738,-241 604.8738,-241 604.8738,-241 716.3722,-241 716.3722,-241 722.3722,-241 728.3722,-247 728.3722,-253 728.3722,-253 728.3722,-273 728.3722,-273 728.3722,-279 722.3722,-285 716.3722,-285"/>
<text text-anchor="middle" x="660.623" y="-272" font-family="Helvetica,sans-Serif" font-size="10.00" fill="#000000">FT_REVERSE </text>
<text text-anchor="middle" x="660.623" y="-260" font-family="Helvetica,sans-Serif" font-size="10.00" fill="#000000">auxiliar function </text>
<text text-anchor="middle" x="660.623" y="-248" font-family="Helvetica,sans-Serif" font-size="10.00" fill="#000000">swap an integer number</text>
</g>
<!-- A14&#45;&gt;A18 -->
<g id="edge25" class="edge">
<title>A14&#45;&gt;A18</title>
<path fill="none" stroke="#000000" d="M612.5531,-321.7521C621.5042,-310.8118 632.9508,-296.8215 642.4285,-285.2377"/>
</g>
<!-- A15&#45;&gt;A12 -->
<g id="edge20" class="edge">
<title>A15&#45;&gt;A12:n</title>
<path fill="none" stroke="#000000" d="M664.7003,-324.1376C661.6411,-323.3671 658.5986,-322.6466 655.623,-322 634.8361,-317.4829 305.3135,-293.0435 248.8303,-271.1034"/>
<polygon fill="#000000" stroke="#000000" points="240.623,-265 251.3327,-267.3564 244.6352,-267.9837 248.6474,-270.9674 248.6474,-270.9674 248.6474,-270.9674 244.6352,-267.9837 245.9621,-274.5784 240.623,-265 240.623,-265"/>
</g>
<!-- A15&#45;&gt;A18 -->
<g id="edge26" class="edge">
<title>A15&#45;&gt;A18</title>
<path fill="none" stroke="#000000" d="M702.5888,-321.7521C694.7743,-310.8118 684.7812,-296.8215 676.5071,-285.2377"/>
</g>
<!-- A16&#45;&gt;A12 -->
<g id="edge22" class="edge">
<title>A16&#45;&gt;A12:n</title>
<path fill="none" stroke="#000000" d="M245.623,-321.8137C245.623,-309.2356 245.623,-291.8327 245.623,-275.2038"/>
<polygon fill="#000000" stroke="#000000" points="245.623,-265 250.1231,-275 245.623,-270 245.6231,-275 245.6231,-275 245.6231,-275 245.623,-270 241.1231,-275 245.623,-265 245.623,-265"/>
</g>
<!-- A17&#45;&gt;A12 -->
<g id="edge24" class="edge">
<title>A17&#45;&gt;A12:n</title>
<path fill="none" stroke="#000000" d="M297.9419,-323.7527C277.9543,-313.0355 256.8831,-296.9117 251.7828,-275.0721"/>
<polygon fill="#000000" stroke="#000000" points="250.623,-265 256.2375,-274.4196 251.195,-269.9672 251.767,-274.9344 251.767,-274.9344 251.767,-274.9344 251.195,-269.9672 247.2965,-275.4492 250.623,-265 250.623,-265"/>
</g>
<!-- A19&#45;&gt;A2 -->
<g id="edge29" class="edge">
<title>A19&#45;&gt;A2</title>
<path fill="none" stroke="#000000" d="M63.3353,-115.8176C58.5959,-132.3396 51.623,-160.9111 51.623,-186 51.623,-640 51.623,-640 51.623,-640 51.623,-672.6539 141.8083,-698.945 202.5443,-712.9485"/>
<polygon fill="#000000" stroke="#000000" points="212.3934,-715.1719 201.6479,-717.3593 207.5162,-714.0708 202.6389,-712.9697 202.6389,-712.9697 202.6389,-712.9697 207.5162,-714.0708 203.6299,-708.5802 212.3934,-715.1719 212.3934,-715.1719"/>
<text text-anchor="middle" x="59.122" y="-391" font-family="Helvetica,sans-Serif" font-size="10.00" fill="#000000">NO</text>
</g>
<!-- A20 -->
<g id="node21" class="node">
<title>A20</title>
<path fill="none" stroke="#000000" d="M123.3692,-36C123.3692,-36 11.8768,-36 11.8768,-36 5.8768,-36 -.1232,-30 -.1232,-24 -.1232,-24 -.1232,-12 -.1232,-12 -.1232,-6 5.8768,0 11.8768,0 11.8768,0 123.3692,0 123.3692,0 129.3692,0 135.3692,-6 135.3692,-12 135.3692,-12 135.3692,-24 135.3692,-24 135.3692,-30 129.3692,-36 123.3692,-36"/>
<text text-anchor="middle" x="67.623" y="-21" font-family="Helvetica,sans-Serif" font-size="10.00" fill="#000000">RETURN &#39;wr&#39; </text>
<text text-anchor="middle" x="67.623" y="-9" font-family="Helvetica,sans-Serif" font-size="10.00" fill="#000000">write the integer counter</text>
</g>
<!-- A19&#45;&gt;A20 -->
<g id="edge30" class="edge">
<title>A19&#45;&gt;A20</title>
<path fill="none" stroke="#000000" d="M67.623,-83.7733C67.623,-72.8758 67.623,-58.7946 67.623,-46.4587"/>
<polygon fill="#000000" stroke="#000000" points="67.623,-36.1912 72.1231,-46.1911 67.623,-41.1912 67.6231,-46.1912 67.6231,-46.1912 67.6231,-46.1912 67.623,-41.1912 63.1231,-46.1912 67.623,-36.1912 67.623,-36.1912"/>
<text text-anchor="middle" x="77.6265" y="-57" font-family="Helvetica,sans-Serif" font-size="10.00" fill="#000000">YES</text>
</g>
<!-- A21 -->
<g id="node22" class="node">
<title>A21</title>
<path fill="none" stroke="#000000" d="M469.5229,-888C469.5229,-888 405.7231,-888 405.7231,-888 399.7231,-888 393.7231,-882 393.7231,-876 393.7231,-876 393.7231,-864 393.7231,-864 393.7231,-858 399.7231,-852 405.7231,-852 405.7231,-852 469.5229,-852 469.5229,-852 475.5229,-852 481.5229,-858 481.5229,-864 481.5229,-864 481.5229,-876 481.5229,-876 481.5229,-882 475.5229,-888 469.5229,-888"/>
<text text-anchor="middle" x="437.623" y="-867" font-family="Helvetica,sans-Serif" font-size="10.00" fill="#000000">RETURN &#39;wr&#39;</text>
</g>
<!-- A22 -->
<g id="node23" class="node">
<title>A22</title>
<ellipse fill="none" stroke="#000000" cx="437.623" cy="-797" rx="11" ry="11"/>
<ellipse fill="none" stroke="#000000" cx="437.623" cy="-797" rx="15" ry="15"/>
</g>
<!-- A21&#45;&gt;A22 -->
<g id="edge31" class="edge">
<title>A21&#45;&gt;A22</title>
<path fill="none" stroke="#000000" d="M437.623,-851.9551C437.623,-843.1202 437.623,-832.3277 437.623,-822.6535"/>
<polygon fill="#000000" stroke="#000000" points="437.623,-812.3699 442.1231,-822.3699 437.623,-817.3699 437.6231,-822.3699 437.6231,-822.3699 437.6231,-822.3699 437.623,-817.3699 433.1231,-822.37 437.623,-812.3699 437.623,-812.3699"/>
</g>
</g>
</svg>
