<?xml version="1.0" encoding="UTF-8" standalone="no"?>
<!DOCTYPE svg PUBLIC "-//W3C//DTD SVG 1.1//EN"
 "http://www.w3.org/Graphics/SVG/1.1/DTD/svg11.dtd">
<!-- Generated by graphviz version 2.40.1 (20161225.0304)
 -->
<!-- Title: G Pages: 1 -->
<svg width="852pt" height="963pt"
 viewBox="0.00 0.00 851.51 963.00" xmlns="http://www.w3.org/2000/svg" xmlns:xlink="http://www.w3.org/1999/xlink">
<g id="graph0" class="graph" transform="scale(1 1) rotate(0) translate(4 959)">
<title>G</title>
<polygon fill="#ffffff" stroke="transparent" points="-4,4 -4,-959 847.514,-959 847.514,4 -4,4"/>
<!-- A0 -->
<g id="node1" class="node">
<title>A0</title>
<polygon fill="none" stroke="#000000" points="370.5759,-955 258.6701,-955 258.6701,-919 376.5759,-919 376.5759,-949 370.5759,-955"/>
<polyline fill="none" stroke="#000000" points="370.5759,-955 370.5759,-949 "/>
<polyline fill="none" stroke="#000000" points="376.5759,-949 370.5759,-949 "/>
<text text-anchor="middle" x="317.623" y="-940" font-family="Helvetica,sans-Serif" font-size="10.00" fill="#000000">FT_PRINTF funtion </text>
<text text-anchor="middle" x="317.623" y="-928" font-family="Helvetica,sans-Serif" font-size="10.00" fill="#000000">FILE: ft_printf.c</text>
</g>
<!-- A1 -->
<g id="node2" class="node">
<title>A1</title>
<path fill="none" stroke="#000000" d="M334.618,-882C334.618,-882 300.628,-882 300.628,-882 294.628,-882 288.628,-876 288.628,-870 288.628,-870 288.628,-858 288.628,-858 288.628,-852 294.628,-846 300.628,-846 300.628,-846 334.618,-846 334.618,-846 340.618,-846 346.618,-852 346.618,-858 346.618,-858 346.618,-870 346.618,-870 346.618,-876 340.618,-882 334.618,-882"/>
<text text-anchor="middle" x="317.623" y="-861" font-family="Helvetica,sans-Serif" font-size="10.00" fill="#000000">INPUT</text>
</g>
<!-- A0&#45;&gt;A1 -->
<g id="edge1" class="edge">
<title>A0&#45;&gt;A1</title>
<path fill="none" stroke="#000000" stroke-dasharray="5,2" d="M317.623,-918.9551C317.623,-907.7241 317.623,-893.3298 317.623,-882.0904"/>
</g>
<!-- A2 -->
<g id="node3" class="node">
<title>A2</title>
<path fill="none" stroke="#000000" d="M288.6831,-809C288.6831,-809 224.5629,-809 224.5629,-809 218.5629,-809 212.5629,-803 212.5629,-797 212.5629,-797 212.5629,-785 212.5629,-785 212.5629,-779 218.5629,-773 224.5629,-773 224.5629,-773 288.6831,-773 288.6831,-773 294.6831,-773 300.6831,-779 300.6831,-785 300.6831,-785 300.6831,-797 300.6831,-797 300.6831,-803 294.6831,-809 288.6831,-809"/>
<text text-anchor="middle" x="256.623" y="-788" font-family="Helvetica,sans-Serif" font-size="10.00" fill="#000000">read STRING</text>
</g>
<!-- A1&#45;&gt;A2 -->
<g id="edge2" class="edge">
<title>A1&#45;&gt;A2</title>
<path fill="none" stroke="#000000" d="M302.5443,-845.9551C293.1596,-834.7241 281.1314,-820.3298 271.7396,-809.0904"/>
</g>
<!-- A4 -->
<g id="node5" class="node">
<title>A4</title>
<path fill="none" stroke="#000000" d="M427.633,-809C427.633,-809 331.613,-809 331.613,-809 325.613,-809 319.613,-803 319.613,-797 319.613,-797 319.613,-785 319.613,-785 319.613,-779 325.613,-773 331.613,-773 331.613,-773 427.633,-773 427.633,-773 433.633,-773 439.633,-779 439.633,-785 439.633,-785 439.633,-797 439.633,-797 439.633,-803 433.633,-809 427.633,-809"/>
<text text-anchor="middle" x="379.623" y="-794" font-family="Helvetica,sans-Serif" font-size="10.00" fill="#000000">1ยบ string with flags +</text>
<text text-anchor="middle" x="379.623" y="-782" font-family="Helvetica,sans-Serif" font-size="10.00" fill="#000000"> 2ยบ variables</text>
</g>
<!-- A1&#45;&gt;A4 -->
<g id="edge4" class="edge">
<title>A1&#45;&gt;A4</title>
<path fill="none" stroke="#000000" d="M332.9488,-845.9551C342.4874,-834.7241 354.7128,-820.3298 364.2586,-809.0904"/>
</g>
<!-- A3 -->
<g id="node4" class="node">
<title>A3</title>
<polygon fill="none" stroke="#000000" points="276.623,-725 258.623,-707 276.623,-689 294.623,-707 276.623,-725"/>
</g>
<!-- A2&#45;&gt;A3 -->
<g id="edge3" class="edge">
<title>A2&#45;&gt;A3</title>
<path fill="none" stroke="#000000" d="M260.9627,-772.7733C263.8454,-760.6657 267.6639,-744.6281 270.8086,-731.4206"/>
<polygon fill="#000000" stroke="#000000" points="273.1553,-721.5642 275.2167,-732.3346 271.9972,-726.4283 270.839,-731.2923 270.839,-731.2923 270.839,-731.2923 271.9972,-726.4283 266.4614,-730.25 273.1553,-721.5642 273.1553,-721.5642"/>
<text text-anchor="middle" x="317.244" y="-746" font-family="Helvetica,sans-Serif" font-size="10.00" fill="#000000">character to character</text>
</g>
<!-- A6 -->
<g id="node7" class="node">
<title>A6</title>
<path fill="none" stroke="#000000" d="M287.61,-271C287.61,-271 203.636,-271 203.636,-271 197.636,-271 191.636,-265 191.636,-259 191.636,-259 191.636,-247 191.636,-247 191.636,-241 197.636,-235 203.636,-235 203.636,-235 287.61,-235 287.61,-235 293.61,-235 299.61,-241 299.61,-247 299.61,-247 299.61,-259 299.61,-259 299.61,-265 293.61,-271 287.61,-271"/>
<text text-anchor="middle" x="245.623" y="-256" font-family="Helvetica,sans-Serif" font-size="10.00" fill="#000000">WRITE &amp; COUNT</text>
<text text-anchor="middle" x="245.623" y="-244" font-family="Helvetica,sans-Serif" font-size="10.00" fill="#000000"> caracter</text>
</g>
<!-- A3&#45;&gt;A6 -->
<g id="edge6" class="edge">
<title>A3&#45;&gt;A6</title>
<path fill="none" stroke="#000000" d="M288.5181,-700.8104C296.5434,-696.8787 307.4808,-691.9852 317.623,-689 422.7647,-658.053 804.623,-720.6015 804.623,-611 804.623,-611 804.623,-611 804.623,-330 804.623,-280.5511 456.9083,-261.2055 309.9562,-255.2376"/>
<polygon fill="#000000" stroke="#000000" points="299.7302,-254.8308 309.9012,-250.7319 304.7262,-255.0296 309.7223,-255.2284 309.7223,-255.2284 309.7223,-255.2284 304.7262,-255.0296 309.5434,-259.7248 299.7302,-254.8308 299.7302,-254.8308"/>
<text text-anchor="middle" x="824.0685" y="-464" font-family="Helvetica,sans-Serif" font-size="10.00" fill="#000000">[ normal </text>
<text text-anchor="middle" x="824.0685" y="-452" font-family="Helvetica,sans-Serif" font-size="10.00" fill="#000000">char. ]</text>
</g>
<!-- A7 -->
<g id="node8" class="node">
<title>A7</title>
<path fill="none" stroke="#000000" d="M318.03,-629C318.03,-629 235.216,-629 235.216,-629 229.216,-629 223.216,-623 223.216,-617 223.216,-617 223.216,-605 223.216,-605 223.216,-599 229.216,-593 235.216,-593 235.216,-593 318.03,-593 318.03,-593 324.03,-593 330.03,-599 330.03,-605 330.03,-605 330.03,-617 330.03,-617 330.03,-623 324.03,-629 318.03,-629"/>
<text text-anchor="middle" x="276.623" y="-614" font-family="Helvetica,sans-Serif" font-size="10.00" fill="#000000">ANALYSIS_ONE </text>
<text text-anchor="middle" x="276.623" y="-602" font-family="Helvetica,sans-Serif" font-size="10.00" fill="#000000">function</text>
</g>
<!-- A3&#45;&gt;A7 -->
<g id="edge7" class="edge">
<title>A3&#45;&gt;A7</title>
<path fill="none" stroke="#000000" d="M276.623,-688.9431C276.623,-675.0862 276.623,-655.6861 276.623,-639.7075"/>
<polygon fill="#000000" stroke="#000000" points="276.623,-629.3023 281.1231,-639.3023 276.623,-634.3023 276.6231,-639.3023 276.6231,-639.3023 276.6231,-639.3023 276.623,-634.3023 272.1231,-639.3023 276.623,-629.3023 276.623,-629.3023"/>
<text text-anchor="middle" x="296.8925" y="-662" font-family="Helvetica,sans-Serif" font-size="10.00" fill="#000000">[ flag &#39;%&#39; </text>
<text text-anchor="middle" x="296.8925" y="-650" font-family="Helvetica,sans-Serif" font-size="10.00" fill="#000000">char. ]</text>
</g>
<!-- A5 -->
<g id="node6" class="node">
<title>A5</title>
<path fill="none" stroke="#000000" d="M420.3573,-725C420.3573,-725 338.8887,-725 338.8887,-725 332.8887,-725 326.8887,-719 326.8887,-713 326.8887,-713 326.8887,-701 326.8887,-701 326.8887,-695 332.8887,-689 338.8887,-689 338.8887,-689 420.3573,-689 420.3573,-689 426.3573,-689 432.3573,-695 432.3573,-701 432.3573,-701 432.3573,-713 432.3573,-713 432.3573,-719 426.3573,-725 420.3573,-725"/>
<text text-anchor="middle" x="379.623" y="-710" font-family="Helvetica,sans-Serif" font-size="10.00" fill="#000000">variadic funcition </text>
<text text-anchor="middle" x="379.623" y="-698" font-family="Helvetica,sans-Serif" font-size="10.00" fill="#000000">use</text>
</g>
<!-- A4&#45;&gt;A5 -->
<g id="edge5" class="edge">
<title>A4&#45;&gt;A5</title>
<path fill="none" stroke="#000000" d="M379.623,-772.7733C379.623,-758.6836 379.623,-739.2718 379.623,-725.1912"/>
</g>
<!-- A19 -->
<g id="node20" class="node">
<title>A19</title>
<polygon fill="none" stroke="#000000" points="67.623,-187 49.623,-169 67.623,-151 85.623,-169 67.623,-187"/>
</g>
<!-- A6&#45;&gt;A19 -->
<g id="edge28" class="edge">
<title>A6&#45;&gt;A19</title>
<path fill="none" stroke="#000000" d="M207.4375,-234.9799C171.4342,-217.9896 118.7466,-193.1257 89.4048,-179.2791"/>
<polygon fill="#000000" stroke="#000000" points="80.0656,-174.8718 91.0297,-175.07 84.5873,-177.0057 89.1091,-179.1396 89.1091,-179.1396 89.1091,-179.1396 84.5873,-177.0057 87.1886,-183.2092 80.0656,-174.8718 80.0656,-174.8718"/>
<text text-anchor="middle" x="226.2445" y="-208" font-family="Helvetica,sans-Serif" font-size="10.00" fill="#000000">Is the string at the end &#39;0&#39;?</text>
</g>
<!-- A8 -->
<g id="node9" class="node">
<title>A8</title>
<path fill="none" stroke="#000000" d="M491.6909,-533C491.6909,-533 407.5551,-533 407.5551,-533 401.5551,-533 395.5551,-527 395.5551,-521 395.5551,-521 395.5551,-509 395.5551,-509 395.5551,-503 401.5551,-497 407.5551,-497 407.5551,-497 491.6909,-497 491.6909,-497 497.6909,-497 503.6909,-503 503.6909,-509 503.6909,-509 503.6909,-521 503.6909,-521 503.6909,-527 497.6909,-533 491.6909,-533"/>
<text text-anchor="middle" x="449.623" y="-518" font-family="Helvetica,sans-Serif" font-size="10.00" fill="#000000">ANALYSIS_TWO </text>
<text text-anchor="middle" x="449.623" y="-506" font-family="Helvetica,sans-Serif" font-size="10.00" fill="#000000">function</text>
</g>
<!-- A7&#45;&gt;A8 -->
<g id="edge8" class="edge">
<title>A7&#45;&gt;A8</title>
<path fill="none" stroke="#000000" d="M329.1653,-592.852C342.039,-587.6938 355.5737,-581.6485 367.623,-575 385.9977,-564.8614 405.0034,-551.1881 420.0853,-539.4549"/>
<polygon fill="#000000" stroke="#000000" points="428.0315,-533.1709 422.9791,-542.9036 424.1097,-536.2724 420.1878,-539.3739 420.1878,-539.3739 420.1878,-539.3739 424.1097,-536.2724 417.3965,-535.8442 428.0315,-533.1709 428.0315,-533.1709"/>
</g>
<!-- A9 -->
<g id="node10" class="node">
<title>A9</title>
<polygon fill="none" stroke="#000000" points="187.8184,-533 79.4276,-533 79.4276,-497 193.8184,-497 193.8184,-527 187.8184,-533"/>
<polyline fill="none" stroke="#000000" points="187.8184,-533 187.8184,-527 "/>
<polyline fill="none" stroke="#000000" points="193.8184,-527 187.8184,-527 "/>
<text text-anchor="middle" x="136.623" y="-518" font-family="Helvetica,sans-Serif" font-size="10.00" fill="#000000">c,s and % subflags </text>
<text text-anchor="middle" x="136.623" y="-506" font-family="Helvetica,sans-Serif" font-size="10.00" fill="#000000">FILE: ft_util_char.c</text>
</g>
<!-- A7&#45;&gt;A9 -->
<g id="edge9" class="edge">
<title>A7&#45;&gt;A9</title>
<path fill="none" stroke="#000000" stroke-dasharray="5,2" d="M231.709,-592.9819C220.8271,-587.8204 209.4939,-581.7411 199.623,-575 182.036,-562.9894 164.7105,-546.0076 152.6936,-533.1743"/>
</g>
<!-- A11 -->
<g id="node12" class="node">
<title>A11</title>
<path fill="none" stroke="#000000" d="M188.1752,-479C188.1752,-479 129.0708,-479 129.0708,-479 123.0708,-479 117.0708,-473 117.0708,-467 117.0708,-467 117.0708,-455 117.0708,-455 117.0708,-449 123.0708,-443 129.0708,-443 129.0708,-443 188.1752,-443 188.1752,-443 194.1752,-443 200.1752,-449 200.1752,-455 200.1752,-455 200.1752,-467 200.1752,-467 200.1752,-473 194.1752,-479 188.1752,-479"/>
<text text-anchor="middle" x="158.623" y="-464" font-family="Helvetica,sans-Serif" font-size="10.00" fill="#000000">FT_PCHAR </text>
<text text-anchor="middle" x="158.623" y="-452" font-family="Helvetica,sans-Serif" font-size="10.00" fill="#000000">function</text>
</g>
<!-- A7&#45;&gt;A11 -->
<g id="edge11" class="edge">
<title>A7&#45;&gt;A11</title>
<path fill="none" stroke="#000000" d="M241.6543,-592.9468C234.6223,-587.9503 227.8861,-581.9529 222.949,-575 202.208,-545.7905 221.9548,-527.1607 202.623,-497 200.1597,-493.1568 197.1503,-489.5273 193.8726,-486.1596"/>
<polygon fill="#000000" stroke="#000000" points="186.3762,-479.2243 196.7726,-482.7122 190.0464,-482.6198 193.7166,-486.0154 193.7166,-486.0154 193.7166,-486.0154 190.0464,-482.6198 190.6606,-489.3186 186.3762,-479.2243 186.3762,-479.2243"/>
<text text-anchor="middle" x="239.46" y="-566" font-family="Helvetica,sans-Serif" font-size="10.00" fill="#000000">next is </text>
<text text-anchor="middle" x="239.46" y="-554" font-family="Helvetica,sans-Serif" font-size="10.00" fill="#000000">&#39;c&#39;</text>
</g>
<!-- A7&#45;&gt;A11 -->
<g id="edge13" class="edge">
<title>A7&#45;&gt;A11</title>
<path fill="none" stroke="#000000" d="M272.1147,-592.8726C265.1376,-568.22 249.5274,-524.0957 221.623,-497 216.9969,-492.5079 211.702,-488.373 206.1907,-484.6319"/>
<polygon fill="#000000" stroke="#000000" points="197.4171,-479.0825 208.2739,-480.6249 201.6427,-481.7553 205.8684,-484.4281 205.8684,-484.4281 205.8684,-484.4281 201.6427,-481.7553 203.4629,-488.2312 197.4171,-479.0825 197.4171,-479.0825"/>
<text text-anchor="middle" x="282.46" y="-566" font-family="Helvetica,sans-Serif" font-size="10.00" fill="#000000">next is </text>
<text text-anchor="middle" x="282.46" y="-554" font-family="Helvetica,sans-Serif" font-size="10.00" fill="#000000">&#39;%&#39;</text>
</g>
<!-- A13 -->
<g id="node14" class="node">
<title>A13</title>
<path fill="none" stroke="#000000" d="M283.9536,-479C283.9536,-479 221.2924,-479 221.2924,-479 215.2924,-479 209.2924,-473 209.2924,-467 209.2924,-467 209.2924,-455 209.2924,-455 209.2924,-449 215.2924,-443 221.2924,-443 221.2924,-443 283.9536,-443 283.9536,-443 289.9536,-443 295.9536,-449 295.9536,-455 295.9536,-455 295.9536,-467 295.9536,-467 295.9536,-473 289.9536,-479 283.9536,-479"/>
<text text-anchor="middle" x="252.623" y="-464" font-family="Helvetica,sans-Serif" font-size="10.00" fill="#000000">FT_PCHAIN </text>
<text text-anchor="middle" x="252.623" y="-452" font-family="Helvetica,sans-Serif" font-size="10.00" fill="#000000">function</text>
</g>
<!-- A7&#45;&gt;A13 -->
<g id="edge15" class="edge">
<title>A7&#45;&gt;A13</title>
<path fill="none" stroke="#000000" d="M298.1415,-592.6947C302.811,-587.5016 307.1026,-581.4795 309.623,-575 313.4899,-565.0589 311.4188,-561.5144 309.623,-551 305.3396,-525.9209 304.4673,-518.3458 290.623,-497 288.2865,-493.3974 285.5179,-489.8983 282.5565,-486.5872"/>
<polygon fill="#000000" stroke="#000000" points="275.4087,-479.2423 285.6079,-483.2705 278.8958,-482.8256 282.383,-486.4089 282.383,-486.4089 282.383,-486.4089 278.8958,-482.8256 279.158,-489.5474 275.4087,-479.2423 275.4087,-479.2423"/>
<text text-anchor="middle" x="328.46" y="-566" font-family="Helvetica,sans-Serif" font-size="10.00" fill="#000000">next is </text>
<text text-anchor="middle" x="328.46" y="-554" font-family="Helvetica,sans-Serif" font-size="10.00" fill="#000000">&#39;s&#39;</text>
</g>
<!-- A10 -->
<g id="node11" class="node">
<title>A10</title>
<polygon fill="none" stroke="#000000" points="533.8313,-425 405.4147,-425 405.4147,-389 539.8313,-389 539.8313,-419 533.8313,-425"/>
<polyline fill="none" stroke="#000000" points="533.8313,-425 533.8313,-419 "/>
<polyline fill="none" stroke="#000000" points="539.8313,-419 533.8313,-419 "/>
<text text-anchor="middle" x="472.623" y="-410" font-family="Helvetica,sans-Serif" font-size="10.00" fill="#000000">d,i,u,x,X and p subflags </text>
<text text-anchor="middle" x="472.623" y="-398" font-family="Helvetica,sans-Serif" font-size="10.00" fill="#000000">FILE: ft_util_number.c</text>
</g>
<!-- A8&#45;&gt;A10 -->
<g id="edge10" class="edge">
<title>A8&#45;&gt;A10</title>
<path fill="none" stroke="#000000" stroke-dasharray="5,2" d="M453.5246,-496.6793C457.7797,-476.699 464.5468,-444.9231 468.779,-425.0502"/>
</g>
<!-- A14 -->
<g id="node15" class="node">
<title>A14</title>
<path fill="none" stroke="#000000" d="M644.673,-425C644.673,-425 570.573,-425 570.573,-425 564.573,-425 558.573,-419 558.573,-413 558.573,-413 558.573,-401 558.573,-401 558.573,-395 564.573,-389 570.573,-389 570.573,-389 644.673,-389 644.673,-389 650.673,-389 656.673,-395 656.673,-401 656.673,-401 656.673,-413 656.673,-413 656.673,-419 650.673,-425 644.673,-425"/>
<text text-anchor="middle" x="607.623" y="-410" font-family="Helvetica,sans-Serif" font-size="10.00" fill="#000000">FT_PNUMBER </text>
<text text-anchor="middle" x="607.623" y="-398" font-family="Helvetica,sans-Serif" font-size="10.00" fill="#000000">function</text>
</g>
<!-- A8&#45;&gt;A14 -->
<g id="edge17" class="edge">
<title>A8&#45;&gt;A14</title>
<path fill="none" stroke="#000000" d="M476.0686,-496.9232C502.6142,-478.7782 543.6484,-450.7295 572.8233,-430.7871"/>
<polygon fill="#000000" stroke="#000000" points="581.0911,-425.1357 575.3748,-434.4939 576.9632,-427.9573 572.8354,-430.7789 572.8354,-430.7789 572.8354,-430.7789 576.9632,-427.9573 570.296,-427.0638 581.0911,-425.1357 581.0911,-425.1357"/>
<text text-anchor="middle" x="567.46" y="-464" font-family="Helvetica,sans-Serif" font-size="10.00" fill="#000000">next is </text>
<text text-anchor="middle" x="567.46" y="-452" font-family="Helvetica,sans-Serif" font-size="10.00" fill="#000000">&#39;d&#39; or &#39;i&#39;</text>
</g>
<!-- A15 -->
<g id="node16" class="node">
<title>A15</title>
<path fill="none" stroke="#000000" d="M764.4515,-425C764.4515,-425 686.7945,-425 686.7945,-425 680.7945,-425 674.7945,-419 674.7945,-413 674.7945,-413 674.7945,-401 674.7945,-401 674.7945,-395 680.7945,-389 686.7945,-389 686.7945,-389 764.4515,-389 764.4515,-389 770.4515,-389 776.4515,-395 776.4515,-401 776.4515,-401 776.4515,-413 776.4515,-413 776.4515,-419 770.4515,-425 764.4515,-425"/>
<text text-anchor="middle" x="725.623" y="-410" font-family="Helvetica,sans-Serif" font-size="10.00" fill="#000000">FT_UNSIGNED </text>
<text text-anchor="middle" x="725.623" y="-398" font-family="Helvetica,sans-Serif" font-size="10.00" fill="#000000">function</text>
</g>
<!-- A8&#45;&gt;A15 -->
<g id="edge19" class="edge">
<title>A8&#45;&gt;A15</title>
<path fill="none" stroke="#000000" d="M503.9213,-503.8258C529.7117,-497.766 560.7091,-489.3781 587.623,-479 622.5084,-465.5481 659.9953,-445.6053 687.0816,-430.1172"/>
<polygon fill="#000000" stroke="#000000" points="695.8499,-425.0513 689.4423,-433.9504 691.5205,-427.5526 687.1911,-430.054 687.1911,-430.054 687.1911,-430.054 691.5205,-427.5526 684.9399,-426.1575 695.8499,-425.0513 695.8499,-425.0513"/>
<text text-anchor="middle" x="675.46" y="-464" font-family="Helvetica,sans-Serif" font-size="10.00" fill="#000000">next is </text>
<text text-anchor="middle" x="675.46" y="-452" font-family="Helvetica,sans-Serif" font-size="10.00" fill="#000000">&#39;u&#39;</text>
</g>
<!-- A16 -->
<g id="node17" class="node">
<title>A16</title>
<path fill="none" stroke="#000000" d="M278.2361,-425C278.2361,-425 233.0099,-425 233.0099,-425 227.0099,-425 221.0099,-419 221.0099,-413 221.0099,-413 221.0099,-401 221.0099,-401 221.0099,-395 227.0099,-389 233.0099,-389 233.0099,-389 278.2361,-389 278.2361,-389 284.2361,-389 290.2361,-395 290.2361,-401 290.2361,-401 290.2361,-413 290.2361,-413 290.2361,-419 284.2361,-425 278.2361,-425"/>
<text text-anchor="middle" x="255.623" y="-410" font-family="Helvetica,sans-Serif" font-size="10.00" fill="#000000">FT_HEX </text>
<text text-anchor="middle" x="255.623" y="-398" font-family="Helvetica,sans-Serif" font-size="10.00" fill="#000000">function</text>
</g>
<!-- A8&#45;&gt;A16 -->
<g id="edge21" class="edge">
<title>A8&#45;&gt;A16</title>
<path fill="none" stroke="#000000" d="M395.3705,-499.3749C379.8986,-493.9252 363.3445,-487.1046 348.949,-479 326.8337,-466.5492 324.7055,-458.5178 304.623,-443 299.5799,-439.1032 294.1901,-435.0421 288.8977,-431.1109"/>
<polygon fill="#000000" stroke="#000000" points="280.725,-425.0826 291.4438,-427.3972 284.7488,-428.0507 288.7726,-431.0187 288.7726,-431.0187 288.7726,-431.0187 284.7488,-428.0507 286.1014,-434.6401 280.725,-425.0826 280.725,-425.0826"/>
<text text-anchor="middle" x="365.46" y="-464" font-family="Helvetica,sans-Serif" font-size="10.00" fill="#000000">next is </text>
<text text-anchor="middle" x="365.46" y="-452" font-family="Helvetica,sans-Serif" font-size="10.00" fill="#000000">&#39;x&#39;</text>
</g>
<!-- A17 -->
<g id="node18" class="node">
<title>A17</title>
<path fill="none" stroke="#000000" d="M375.2341,-425C375.2341,-425 320.0119,-425 320.0119,-425 314.0119,-425 308.0119,-419 308.0119,-413 308.0119,-413 308.0119,-401 308.0119,-401 308.0119,-395 314.0119,-389 320.0119,-389 320.0119,-389 375.2341,-389 375.2341,-389 381.2341,-389 387.2341,-395 387.2341,-401 387.2341,-401 387.2341,-413 387.2341,-413 387.2341,-419 381.2341,-425 375.2341,-425"/>
<text text-anchor="middle" x="347.623" y="-410" font-family="Helvetica,sans-Serif" font-size="10.00" fill="#000000">FT_POINT </text>
<text text-anchor="middle" x="347.623" y="-398" font-family="Helvetica,sans-Serif" font-size="10.00" fill="#000000">function</text>
</g>
<!-- A8&#45;&gt;A17 -->
<g id="edge23" class="edge">
<title>A8&#45;&gt;A17</title>
<path fill="none" stroke="#000000" d="M433.9107,-496.9528C420.9375,-482.2095 401.9145,-460.9497 384.623,-443 381.2264,-439.4741 377.5948,-435.8139 373.983,-432.2371"/>
<polygon fill="#000000" stroke="#000000" points="366.6788,-425.0823 376.9715,-428.8653 370.2507,-428.5812 373.8226,-432.08 373.8226,-432.08 373.8226,-432.08 370.2507,-428.5812 370.6736,-435.2947 366.6788,-425.0823 366.6788,-425.0823"/>
<text text-anchor="middle" x="432.46" y="-464" font-family="Helvetica,sans-Serif" font-size="10.00" fill="#000000">next is </text>
<text text-anchor="middle" x="432.46" y="-452" font-family="Helvetica,sans-Serif" font-size="10.00" fill="#000000">&#39;c&#39;</text>
</g>
<!-- A12 -->
<g id="node13" class="node">
<title>A12</title>
<polygon fill="#d3d3d3" stroke="#000000" stroke-width="4" points="227.623,-328 227.623,-332 263.623,-332 263.623,-328 227.623,-328"/>
<text text-anchor="middle" x="229.762" y="-329.7" font-family="Helvetica,sans-Serif" font-size="1.00" fill="#000000"> </text>
<polyline fill="none" stroke="#000000" stroke-width="4" points="231.9009,-328 231.9009,-332 "/>
<text text-anchor="middle" x="234.5399" y="-329.7" font-family="Helvetica,sans-Serif" font-size="1.00" fill="#000000"> </text>
<polyline fill="none" stroke="#000000" stroke-width="4" points="237.1788,-328 237.1788,-332 "/>
<text text-anchor="middle" x="239.8178" y="-329.7" font-family="Helvetica,sans-Serif" font-size="1.00" fill="#000000"> </text>
<polyline fill="none" stroke="#000000" stroke-width="4" points="242.4567,-328 242.4567,-332 "/>
<text text-anchor="middle" x="245.0957" y="-329.7" font-family="Helvetica,sans-Serif" font-size="1.00" fill="#000000"> </text>
<polyline fill="none" stroke="#000000" stroke-width="4" points="247.7346,-328 247.7346,-332 "/>
<text text-anchor="middle" x="250.3736" y="-329.7" font-family="Helvetica,sans-Serif" font-size="1.00" fill="#000000"> </text>
<polyline fill="none" stroke="#000000" stroke-width="4" points="253.0125,-328 253.0125,-332 "/>
<text text-anchor="middle" x="255.6515" y="-329.7" font-family="Helvetica,sans-Serif" font-size="1.00" fill="#000000"> </text>
<polyline fill="none" stroke="#000000" stroke-width="4" points="258.2904,-328 258.2904,-332 "/>
<text text-anchor="middle" x="260.9294" y="-329.7" font-family="Helvetica,sans-Serif" font-size="1.00" fill="#000000"> </text>
</g>
<!-- A11&#45;&gt;A12 -->
<g id="edge12" class="edge">
<title>A11&#45;&gt;A12:n</title>
<path fill="none" stroke="#000000" d="M147.6807,-442.7285C137.5493,-423.1875 126.0686,-392.0397 140.623,-370 162.1021,-337.4741 217.7451,-368.0162 227.9893,-342.0165"/>
<polygon fill="#000000" stroke="#000000" points="229.623,-332 232.4545,-342.594 228.8181,-336.9348 228.0132,-341.8696 228.0132,-341.8696 228.0132,-341.8696 228.8181,-336.9348 223.5719,-341.1452 229.623,-332 229.623,-332"/>
</g>
<!-- A11&#45;&gt;A12 -->
<g id="edge14" class="edge">
<title>A11&#45;&gt;A12:n</title>
<path fill="none" stroke="#000000" d="M170.001,-442.8116C187.31,-415.0204 219.4284,-362.9395 230.6385,-341.3316"/>
<polygon fill="#000000" stroke="#000000" points="234.623,-332 234.8346,-342.9638 232.6595,-336.5984 230.6961,-341.1967 230.6961,-341.1967 230.6961,-341.1967 232.6595,-336.5984 226.5575,-339.4296 234.623,-332 234.623,-332"/>
</g>
<!-- A12&#45;&gt;A6 -->
<g id="edge27" class="edge">
<title>A12&#45;&gt;A6</title>
<path fill="none" stroke="#000000" d="M245.623,-327.7786C245.623,-320.9352 245.623,-299.5392 245.623,-281.3779"/>
<polygon fill="#000000" stroke="#000000" points="245.623,-271.1931 250.1231,-281.193 245.623,-276.1931 245.6231,-281.1931 245.6231,-281.1931 245.6231,-281.1931 245.623,-276.1931 241.1231,-281.1931 245.623,-271.1931 245.623,-271.1931"/>
</g>
<!-- A13&#45;&gt;A12 -->
<g id="edge16" class="edge">
<title>A13&#45;&gt;A12:n</title>
<path fill="none" stroke="#000000" d="M225.1419,-442.752C219.6668,-437.7022 214.6703,-431.7309 211.623,-425 205.0241,-410.4242 208.0018,-404.5848 211.623,-389 217.1626,-365.1589 234.1508,-361.0279 238.5656,-341.9446"/>
<polygon fill="#000000" stroke="#000000" points="239.623,-332 243.0404,-342.4198 239.0943,-336.972 238.5656,-341.944 238.5656,-341.944 238.5656,-341.944 239.0943,-336.972 234.0908,-341.4681 239.623,-332 239.623,-332"/>
</g>
<!-- A14&#45;&gt;A12 -->
<g id="edge18" class="edge">
<title>A14&#45;&gt;A12:n</title>
<path fill="none" stroke="#000000" d="M558.4806,-391.5621C555.1555,-390.6552 551.8471,-389.7915 548.623,-389 518.1158,-381.5107 289.3845,-368.8022 250.2966,-340.4273"/>
<polygon fill="#000000" stroke="#000000" points="244.623,-332 253.9406,-337.7822 247.4154,-336.1476 250.2077,-340.2953 250.2077,-340.2953 250.2077,-340.2953 247.4154,-336.1476 246.4748,-342.8084 244.623,-332 244.623,-332"/>
</g>
<!-- A18 -->
<g id="node19" class="node">
<title>A18</title>
<path fill="none" stroke="#000000" d="M709.3722,-352C709.3722,-352 597.8738,-352 597.8738,-352 591.8738,-352 585.8738,-346 585.8738,-340 585.8738,-340 585.8738,-320 585.8738,-320 585.8738,-314 591.8738,-308 597.8738,-308 597.8738,-308 709.3722,-308 709.3722,-308 715.3722,-308 721.3722,-314 721.3722,-320 721.3722,-320 721.3722,-340 721.3722,-340 721.3722,-346 715.3722,-352 709.3722,-352"/>
<text text-anchor="middle" x="653.623" y="-339" font-family="Helvetica,sans-Serif" font-size="10.00" fill="#000000">FT_REVERSE </text>
<text text-anchor="middle" x="653.623" y="-327" font-family="Helvetica,sans-Serif" font-size="10.00" fill="#000000">auxiliar function </text>
<text text-anchor="middle" x="653.623" y="-315" font-family="Helvetica,sans-Serif" font-size="10.00" fill="#000000">swap an integer number</text>
</g>
<!-- A14&#45;&gt;A18 -->
<g id="edge25" class="edge">
<title>A14&#45;&gt;A18</title>
<path fill="none" stroke="#000000" d="M618.5244,-388.7521C625.0601,-377.8118 633.4179,-363.8215 640.3382,-352.2377"/>
</g>
<!-- A15&#45;&gt;A12 -->
<g id="edge20" class="edge">
<title>A15&#45;&gt;A12:n</title>
<path fill="none" stroke="#000000" d="M674.7003,-391.1376C671.6411,-390.3671 668.5986,-389.6466 665.623,-389 644.8361,-384.4829 315.3135,-360.0435 258.8303,-338.1034"/>
<polygon fill="#000000" stroke="#000000" points="250.623,-332 261.3327,-334.3564 254.6352,-334.9837 258.6474,-337.9674 258.6474,-337.9674 258.6474,-337.9674 254.6352,-334.9837 255.9621,-341.5784 250.623,-332 250.623,-332"/>
</g>
<!-- A15&#45;&gt;A18 -->
<g id="edge26" class="edge">
<title>A15&#45;&gt;A18</title>
<path fill="none" stroke="#000000" d="M708.56,-388.7521C698.3302,-377.8118 685.2483,-363.8215 674.4167,-352.2377"/>
</g>
<!-- A16&#45;&gt;A12 -->
<g id="edge22" class="edge">
<title>A16&#45;&gt;A12:n</title>
<path fill="none" stroke="#000000" d="M255.623,-388.8137C255.623,-376.2356 255.623,-358.8327 255.623,-342.2038"/>
<polygon fill="#000000" stroke="#000000" points="255.623,-332 260.1231,-342 255.623,-337 255.6231,-342 255.6231,-342 255.6231,-342 255.623,-337 251.1231,-342 255.623,-332 255.623,-332"/>
</g>
<!-- A17&#45;&gt;A12 -->
<g id="edge24" class="edge">
<title>A17&#45;&gt;A12:n</title>
<path fill="none" stroke="#000000" d="M307.9419,-390.7527C287.9543,-380.0355 266.8831,-363.9117 261.7828,-342.0721"/>
<polygon fill="#000000" stroke="#000000" points="260.623,-332 266.2375,-341.4196 261.195,-336.9672 261.767,-341.9344 261.767,-341.9344 261.767,-341.9344 261.195,-336.9672 257.2965,-342.4492 260.623,-332 260.623,-332"/>
</g>
<!-- A19&#45;&gt;A2 -->
<g id="edge29" class="edge">
<title>A19&#45;&gt;A2</title>
<path fill="none" stroke="#000000" d="M63.3353,-182.8176C58.5959,-199.3396 51.623,-227.9111 51.623,-253 51.623,-707 51.623,-707 51.623,-707 51.623,-739.6539 141.8083,-765.945 202.5443,-779.9485"/>
<polygon fill="#000000" stroke="#000000" points="212.3934,-782.1719 201.6479,-784.3593 207.5162,-781.0708 202.6389,-779.9697 202.6389,-779.9697 202.6389,-779.9697 207.5162,-781.0708 203.6299,-775.5802 212.3934,-782.1719 212.3934,-782.1719"/>
<text text-anchor="middle" x="59.122" y="-458" font-family="Helvetica,sans-Serif" font-size="10.00" fill="#000000">NO</text>
</g>
<!-- A20 -->
<g id="node21" class="node">
<title>A20</title>
<path fill="none" stroke="#000000" d="M123.3692,-103C123.3692,-103 11.8768,-103 11.8768,-103 5.8768,-103 -.1232,-97 -.1232,-91 -.1232,-91 -.1232,-79 -.1232,-79 -.1232,-73 5.8768,-67 11.8768,-67 11.8768,-67 123.3692,-67 123.3692,-67 129.3692,-67 135.3692,-73 135.3692,-79 135.3692,-79 135.3692,-91 135.3692,-91 135.3692,-97 129.3692,-103 123.3692,-103"/>
<text text-anchor="middle" x="67.623" y="-88" font-family="Helvetica,sans-Serif" font-size="10.00" fill="#000000">RETURN &#39;wr&#39; </text>
<text text-anchor="middle" x="67.623" y="-76" font-family="Helvetica,sans-Serif" font-size="10.00" fill="#000000">write the integer counter</text>
</g>
<!-- A19&#45;&gt;A20 -->
<g id="edge30" class="edge">
<title>A19&#45;&gt;A20</title>
<path fill="none" stroke="#000000" d="M67.623,-150.7733C67.623,-139.8758 67.623,-125.7946 67.623,-113.4587"/>
<polygon fill="#000000" stroke="#000000" points="67.623,-103.1912 72.1231,-113.1911 67.623,-108.1912 67.6231,-113.1912 67.6231,-113.1912 67.6231,-113.1912 67.623,-108.1912 63.1231,-113.1912 67.623,-103.1912 67.623,-103.1912"/>
<text text-anchor="middle" x="77.6265" y="-124" font-family="Helvetica,sans-Serif" font-size="10.00" fill="#000000">YES</text>
</g>
<!-- A21 -->
<g id="node22" class="node">
<title>A21</title>
<ellipse fill="none" stroke="#000000" cx="67.623" cy="-15" rx="11" ry="11"/>
<ellipse fill="none" stroke="#000000" cx="67.623" cy="-15" rx="15" ry="15"/>
</g>
<!-- A20&#45;&gt;A21 -->
<g id="edge31" class="edge">
<title>A20&#45;&gt;A21</title>
<path fill="none" stroke="#000000" d="M67.623,-66.9733C67.623,-58.9095 67.623,-49.2597 67.623,-40.4761"/>
<polygon fill="#000000" stroke="#000000" points="67.623,-30.3564 72.1231,-40.3563 67.623,-35.3564 67.6231,-40.3564 67.6231,-40.3564 67.6231,-40.3564 67.623,-35.3564 63.1231,-40.3564 67.623,-30.3564 67.623,-30.3564"/>
</g>
</g>
</svg>
